<svg width="154" height="49" viewBox="0 0 154 49" fill="none" xmlns="http://www.w3.org/2000/svg">
<g style="mix-blend-mode:luminosity">
<path d="M2.51333 45.6914H3.55109L5.38338 39.0757H5.44824L7.28054 45.6914H8.3183L10.5884 37.3893H9.56685L7.83185 44.151H7.75077L5.98334 37.3893H4.84829L3.08085 44.151H2.99978L1.26477 37.3893H0.243225L2.51333 45.6914ZM11.7113 45.6914H12.668V39.4648H11.7113V45.6914ZM12.1977 38.4271C12.5707 38.4271 12.8788 38.1352 12.8788 37.7785C12.8788 37.4218 12.5707 37.1299 12.1977 37.1299C11.8248 37.1299 11.5167 37.4218 11.5167 37.7785C11.5167 38.1352 11.8248 38.4271 12.1977 38.4271ZM15.3769 41.9457C15.3769 40.8593 16.0498 40.2432 16.966 40.2432C17.8537 40.2432 18.3929 40.8229 18.3929 41.7998V45.6914H19.3496V41.7349C19.3496 40.1459 18.5023 39.3838 17.2416 39.3838C16.3011 39.3838 15.7174 39.8054 15.4255 40.4377H15.3445V39.4648H14.4202V45.6914H15.3769V41.9457ZM22.0544 41.9457C22.0544 40.8593 22.7274 40.2432 23.6435 40.2432C24.5313 40.2432 25.0704 40.8229 25.0704 41.7998V45.6914H26.0271V41.7349C26.0271 40.1459 25.1799 39.3838 23.9192 39.3838C22.9787 39.3838 22.3949 39.8054 22.1031 40.4377H22.022V39.4648H21.0977V45.6914H22.0544V41.9457ZM27.7753 45.6914H28.732V39.4648H27.7753V45.6914ZM28.2617 38.4271C28.6347 38.4271 28.9428 38.1352 28.9428 37.7785C28.9428 37.4218 28.6347 37.1299 28.2617 37.1299C27.8888 37.1299 27.5807 37.4218 27.5807 37.7785C27.5807 38.1352 27.8888 38.4271 28.2617 38.4271ZM31.4409 41.9457C31.4409 40.8593 32.1138 40.2432 33.03 40.2432C33.9177 40.2432 34.4569 40.8229 34.4569 41.7998V45.6914H35.4136V41.7349C35.4136 40.1459 34.5663 39.3838 33.3056 39.3838C32.3651 39.3838 31.7814 39.8054 31.4895 40.4377H31.4085V39.4648H30.4842V45.6914H31.4409V41.9457ZM39.6751 48.1561C41.1669 48.1561 42.3668 47.4751 42.3668 45.8698V39.4648H41.4425V40.454H41.3452C41.1344 40.1297 40.7453 39.3838 39.5291 39.3838C37.9563 39.3838 36.8699 40.6323 36.8699 42.5457C36.8699 44.4915 38.0049 45.5941 39.5129 45.5941C40.7291 45.5941 41.1182 44.8807 41.329 44.5401H41.4101V45.8049C41.4101 46.8427 40.6804 47.3129 39.6751 47.3129C38.5441 47.3129 38.1468 46.717 37.8914 46.3724L37.1293 46.9075C37.5185 47.5602 38.2846 48.1561 39.6751 48.1561ZM39.6426 44.7347C38.4427 44.7347 37.8266 43.8267 37.8266 42.5295C37.8266 41.2647 38.4265 40.2432 39.6426 40.2432C40.8101 40.2432 41.4263 41.1836 41.4263 42.5295C41.4263 43.9078 40.7939 44.7347 39.6426 44.7347ZM54.4632 41.5404C54.4632 38.9135 52.9227 37.2758 50.7986 37.2758C48.6744 37.2758 47.134 38.9135 47.134 41.5404C47.134 44.1672 48.6744 45.8049 50.7986 45.8049C52.9227 45.8049 54.4632 44.1672 54.4632 41.5404ZM53.4903 41.5404C53.4903 43.697 52.3066 44.8644 50.7986 44.8644C49.2906 44.8644 48.1069 43.697 48.1069 41.5404C48.1069 39.3838 49.2906 38.2163 50.7986 38.2163C52.3066 38.2163 53.4903 39.3838 53.4903 41.5404ZM61.1154 39.4648H60.0776L58.3588 44.4266H58.294L56.5752 39.4648H55.5374L57.8399 45.6914H58.8128L61.1154 39.4648ZM64.7658 45.8211C66.0305 45.8211 66.9548 45.1887 67.2467 44.2483L66.3224 43.9888C66.0792 44.6374 65.5157 44.9617 64.7658 44.9617C63.6429 44.9617 62.8686 44.2361 62.824 42.9024H67.344V42.4971C67.344 40.1783 65.9657 39.3838 64.6685 39.3838C62.9821 39.3838 61.8633 40.7134 61.8633 42.6268C61.8633 44.5401 62.9659 45.8211 64.7658 45.8211ZM62.824 42.0755C62.8889 41.1066 63.574 40.2432 64.6685 40.2432C65.7062 40.2432 66.3711 41.0215 66.3711 42.0755H62.824ZM68.7993 45.6914H69.7559V41.7512C69.7559 40.908 70.4208 40.2918 71.3288 40.2918C71.5842 40.2918 71.8477 40.3405 71.9125 40.3567V39.3838C71.8031 39.3757 71.5518 39.3676 71.4099 39.3676C70.664 39.3676 70.0154 39.7891 69.7884 40.4053H69.7235V39.4648H68.7993V45.6914ZM83.0674 39.9837C82.7594 38.2811 81.3973 37.2758 79.7272 37.2758C77.603 37.2758 76.0626 38.9135 76.0626 41.5404C76.0626 44.1672 77.603 45.8049 79.7272 45.8049C81.3973 45.8049 82.7594 44.7996 83.0674 43.097H82.0621C81.8189 44.2483 80.8298 44.8644 79.7272 44.8644C78.2192 44.8644 77.0355 43.697 77.0355 41.5404C77.0355 39.3838 78.2192 38.2163 79.7272 38.2163C80.8298 38.2163 81.8189 38.8325 82.0621 39.9837H83.0674ZM87.0918 45.8211C88.7782 45.8211 89.9132 44.5401 89.9132 42.6106C89.9132 40.6648 88.7782 39.3838 87.0918 39.3838C85.4054 39.3838 84.2704 40.6648 84.2704 42.6106C84.2704 44.5401 85.4054 45.8211 87.0918 45.8211ZM87.0918 44.9617C85.8108 44.9617 85.2271 43.8591 85.2271 42.6106C85.2271 41.362 85.8108 40.2432 87.0918 40.2432C88.3728 40.2432 88.9565 41.362 88.9565 42.6106C88.9565 43.8591 88.3728 44.9617 87.0918 44.9617ZM96.2421 39.4648H95.2044L93.4856 44.4266H93.4207L91.7019 39.4648H90.6642L92.9667 45.6914H93.9396L96.2421 39.4648ZM97.5049 45.6914H98.4616V39.4648H97.5049V45.6914ZM97.9913 38.4271C98.3643 38.4271 98.6724 38.1352 98.6724 37.7785C98.6724 37.4218 98.3643 37.1299 97.9913 37.1299C97.6184 37.1299 97.3103 37.4218 97.3103 37.7785C97.3103 38.1352 97.6184 38.4271 97.9913 38.4271ZM102.565 45.8211C103.765 45.8211 104.17 45.0752 104.381 44.7347H104.495V45.6914H105.419V37.3893H104.462V40.454H104.381C104.17 40.1297 103.797 39.3838 102.581 39.3838C101.008 39.3838 99.9219 40.6323 99.9219 42.5943C99.9219 44.5726 101.008 45.8211 102.565 45.8211ZM102.695 44.9617C101.495 44.9617 100.879 43.9078 100.879 42.5781C100.879 41.2647 101.479 40.2432 102.695 40.2432C103.862 40.2432 104.478 41.1836 104.478 42.5781C104.478 43.9888 103.846 44.9617 102.695 44.9617ZM110.871 41.6863H107.239V42.5781H110.871V41.6863ZM115.457 37.3893H114.452L112.376 38.7676V39.7891L114.403 38.4433H114.452V45.6914H115.457V37.3893ZM120.488 37.2758C118.801 37.2555 117.715 38.5244 117.715 40.0486C117.715 41.6539 118.899 42.8051 120.325 42.8051C121.185 42.8051 121.915 42.3835 122.369 41.7025H122.433C122.433 43.7456 121.639 44.9131 120.358 44.9131C119.482 44.9131 118.947 44.3618 118.769 43.5997H117.78C117.974 44.9131 118.963 45.8049 120.358 45.8049C122.223 45.8049 123.374 44.151 123.374 41.1998C123.374 38.1514 121.85 37.292 120.488 37.2758ZM120.488 38.1676C121.525 38.1676 122.287 39.0595 122.287 40.0324C122.287 41.0215 121.477 41.9133 120.455 41.9133C119.434 41.9133 118.688 41.0863 118.688 40.0486C118.688 39.0108 119.466 38.1676 120.488 38.1676Z" fill="white"/>
<path d="M19.1033 21.8078C18.8808 24.1647 18.0108 26.0058 16.4935 27.3309C14.9762 28.646 12.9581 29.3035 10.4393 29.3035C8.67919 29.3035 7.12645 28.8887 5.78107 28.0592C4.44581 27.2197 3.41402 26.0311 2.68569 24.4935C1.95737 22.9559 1.57804 21.1705 1.54769 19.1373V17.0737C1.54769 14.9899 1.91691 13.1539 2.65535 11.5657C3.39379 9.97759 4.45087 8.75361 5.82659 7.89378C7.21243 7.03395 8.8107 6.60404 10.6214 6.60404C13.0593 6.60404 15.0217 7.26661 16.5087 8.59176C17.9957 9.9169 18.8606 11.7883 19.1033 14.2059H15.2796C15.0975 12.6178 14.6322 11.4747 13.8837 10.7767C13.1452 10.0686 12.0578 9.71459 10.6214 9.71459C8.95232 9.71459 7.66763 10.3266 6.76734 11.5506C5.87717 12.7644 5.42197 14.5499 5.40174 16.9068V18.8642C5.40174 21.2514 5.82659 23.0723 6.6763 24.3266C7.53613 25.5809 8.79047 26.2081 10.4393 26.2081C11.9465 26.2081 13.0795 25.8692 13.8382 25.1915C14.5968 24.5137 15.0773 23.3858 15.2796 21.8078H19.1033ZM50.0747 21.0947H42.1087V18.1207H50.0747V21.0947ZM70.1801 23.5376L73.5789 6.90751H77.3875L72.2892 29H68.6172L64.4142 12.8707L60.1201 29H56.433L51.3347 6.90751H55.1432L58.5724 23.5072L62.7906 6.90751H66.0074L70.1801 23.5376ZM83.6243 29H79.8006V6.90751H83.6243V29ZM105.247 29H101.408L91.5606 13.3259V29H87.7218V6.90751H91.5606L101.439 22.6423V6.90751H105.247V29Z" fill="white"/>
<path d="M40.1284 20.8144C40.1284 24.9693 36.4593 28.3815 31.8766 28.3815C27.2939 28.3815 23.6248 24.9693 23.6248 20.8144C23.6248 16.6595 27.2939 13.2473 31.8766 13.2473C36.4593 13.2473 40.1284 16.6595 40.1284 20.8144Z" fill="#FCBF02" stroke="white" stroke-width="0.634187"/>
<rect x="30.677" y="16.0837" width="2.39929" height="9.46107" fill="white"/>
<rect x="37.0179" y="19.7104" width="2.20758" height="10.2827" transform="rotate(90 37.0179 19.7104)" fill="white"/>
</g>
</svg>
