<svg xmlns="http://www.w3.org/2000/svg" width="31.064" height="36" viewBox="0 0 31.064 36">
  <g id="Vaccine-Coronavirus-Covid19-Medicine-Medical" transform="translate(-5 -1.488)">
    <path id="Path_47329" data-name="Path 47329" d="M7,33H21.283v2.38H7Z" transform="translate(-0.81 -12.759)" fill="#5aaae7"/>
    <path id="Path_47330" data-name="Path 47330" d="M7,33H21.283v1.19H7Z" transform="translate(-0.81 -12.759)" fill="#3d9ae2"/>
    <path id="Path_47331" data-name="Path 47331" d="M21.663,28.19v1.785a.6.6,0,0,1-.6.6H5.6a.6.6,0,0,1-.6-.6V28.19A1.194,1.194,0,0,1,6.19,27H20.473A1.194,1.194,0,0,1,21.663,28.19Z" transform="translate(0 -10.33)" fill="#1e81ce"/>
    <path id="Path_47332" data-name="Path 47332" d="M51.21,52.575a1.19,1.19,0,0,1-.434,1.625L44.587,57.77a1.134,1.134,0,0,1-.6.161,1.19,1.19,0,0,1-.6-2.22l1.547-.893,3.095-1.785,1.547-.893a1.186,1.186,0,0,1,1.625.434Z" transform="translate(-15.306 -20.443)" fill="#67cef3"/>
    <path id="Path_47334" data-name="Path 47334" d="M44.538,39.451a1.194,1.194,0,0,1-.434,1.625l-1.03.6-6.189,3.571-1.03.6a1.171,1.171,0,0,1-.589.161,1.193,1.193,0,0,1-.6-2.226l1.03-.6,6.189-3.571,1.03-.6a1.171,1.171,0,0,1,.589-.161,1.19,1.19,0,0,1,1.036.6Z" transform="translate(-11.77 -15.127)" fill="#67cef3"/>
    <path id="Path_47335" data-name="Path 47335" d="M48.28,51.645,45.185,53.43,43.8,51.038l-.4-.7,3.095-1.785.4.7Z" transform="translate(-15.547 -19.055)" fill="#3db3e8"/>
    <path id="Path_47336" data-name="Path 47336" d="M46.9,49.252,44,50.93l-.19.107-.4-.7,3.095-1.785Z" transform="translate(-15.547 -19.055)" fill="#3db3e8"/>
    <path id="Path_47337" data-name="Path 47337" d="M45.662,45.947l-1.03.6-3.095,1.785-1.03.6a.6.6,0,0,1-.815-.214l-.488-.845-.4-.7,6.189-3.571.4.7.488.845A.6.6,0,0,1,45.662,45.947Z" transform="translate(-13.685 -17.047)" fill="#66cef3"/>
    <path id="Path_47338" data-name="Path 47338" d="M35.9,27.736,37.09,29.8l1.19,2.059-6.189,3.571-1.083-1.875-.672-1.172-.7-1.2L28.96,30l-.321-.553-1.053-1.827-2.065-3.571-.274-.47a.6.6,0,0,1,.22-.815l.518-.3,4.118-2.38.518-.3a.6.6,0,0,1,.815.22l.893,1.541,1.19,2.065,1.19,2.059Z" transform="translate(-8.166 -7.376)" fill="#91e1f4"/>
    <path id="Path_47339" data-name="Path 47339" d="M29.1,17.538l.893,1.547-4.118,2.38-.893-1.547a.586.586,0,0,1,.214-.809l.518-.3,2.059-1.19.518-.3a.586.586,0,0,1,.809.214Z" transform="translate(-8.058 -6.378)" fill="#717171"/>
    <path id="Path_47340" data-name="Path 47340" d="M21.283,55v1.785A1.785,1.785,0,0,1,19.5,58.571H9.38A2.38,2.38,0,0,1,7,56.19V55Z" transform="translate(-0.81 -21.666)" fill="#5aaae7"/>
    <path id="Path_47341" data-name="Path 47341" d="M7,37H21.283V47.712H7Z" transform="translate(-0.81 -14.378)" fill="#e6e7e8"/>
    <path id="Path_47342" data-name="Path 47342" d="M25.775,13.346l1.488,2.577L25.2,17.113l-1.488-2.577a.6.6,0,0,1,.214-.815l.518-.3.518-.3a.589.589,0,0,1,.809.22Z" transform="translate(-7.545 -4.68)" fill="#717171"/>
    <path id="Path_47343" data-name="Path 47343" d="M20.951,44.38v1.19a.6.6,0,0,1-.6.6h-1.19v1.19a.6.6,0,0,1-.6.6H17.38a.6.6,0,0,1-.6-.6v-1.19H15.6a.6.6,0,0,1-.6-.6V44.38a.6.6,0,0,1,.6-.6h1.19V42.6a.6.6,0,0,1,.6-.6h1.19a.6.6,0,0,1,.6.6v1.19h1.19A.6.6,0,0,1,20.951,44.38Z" transform="translate(-4.049 -16.403)" fill="#d8d7da"/>
    <path id="Path_47344" data-name="Path 47344" d="M19.951,43.38v1.19a.6.6,0,0,1-.6.6h-1.19v1.19a.6.6,0,0,1-.6.6H16.38a.6.6,0,0,1-.6-.6v-1.19H14.6a.6.6,0,0,1-.6-.6V43.38a.6.6,0,0,1,.6-.6h1.19V41.6a.6.6,0,0,1,.6-.6h1.19a.6.6,0,0,1,.6.6v1.19h1.19A.6.6,0,0,1,19.951,43.38Z" transform="translate(-3.644 -15.998)" fill="#ff9811"/>
    <path id="Path_47345" data-name="Path 47345" d="M45.394,44.292l-6,3.464-.19.107-.4-.7,6.189-3.571Z" transform="translate(-13.685 -17.047)" fill="#3db3e8"/>
    <path id="Path_47346" data-name="Path 47346" d="M0,0H1.19V8.1H0Z" transform="translate(12.229 2.099) rotate(-30.924)" fill="#888"/>
    <g id="Group_19748" data-name="Group 19748" transform="translate(20.771 13.655)">
      <path id="Path_47347" data-name="Path 47347" d="M0,0H3.571V1.19H0Z" transform="matrix(0.866, -0.5, 0.5, 0.866, 2.38, 5.908)" fill="#8a8b8c"/>
      <path id="Path_47348" data-name="Path 47348" d="M0,0H3.571V1.19H0Z" transform="matrix(0.866, -0.5, 0.5, 0.866, 0, 1.785)" fill="#8a8b8c"/>
      <path id="Path_47349" data-name="Path 47349" d="M0,0H2.38V1.19H0Z" transform="matrix(0.866, -0.5, 0.5, 0.866, 2.221, 3.252)" fill="#8a8b8c"/>
      <path id="Path_47350" data-name="Path 47350" d="M0,0H3.571V1.19H0Z" transform="matrix(0.866, -0.5, 0.5, 0.866, 4.761, 10.03)" fill="#8a8b8c"/>
      <path id="Path_47351" data-name="Path 47351" d="M0,0H2.38V1.19H0Z" transform="matrix(0.866, -0.5, 0.5, 0.866, 4.601, 7.374)" fill="#8a8b8c"/>
    </g>
  </g>
</svg>
